<svg width="256" height="256" viewBox="0 0 256 256" fill="none" xmlns="http://www.w3.org/2000/svg">
    <rect width="256" height="256" fill="#0D1117"/>
    <g style="mix-blend-mode:hard-light" opacity="0.4" clip-path="url(#clip0)">
        <path d="M62.0171 190.517C62.0171 226.683 91.3349 256 127.5 256C163.665 256 192.983 226.683 192.983 190.517C192.983 154.138 174.793 125.034 186.997 99.5686C186.997 99.5686 167.517 103.207 156.604 132.31C156.604 132.31 120.224 95.9305 135.424 44.9996C135.424 44.9996 98.3968 59.5512 102.269 106.844C105.59 147.398 98.3968 154.138 98.3968 154.138C98.3968 121.396 72.7987 106.844 72.7987 106.844C80.2067 146.862 62.0171 157.776 62.0171 190.517Z" fill="#FFB446"/>
        <path d="M174.767 206.025C174.767 233.263 153.736 256.515 126.504 255.99C100.875 255.496 81.8074 235.997 83.8453 210.525C84.7548 199.157 93.3947 180.74 107.492 162.096L116.89 167.78C116.586 144.74 127.5 114.121 127.5 114.121C134.669 146.382 174.767 154.744 174.767 206.025Z" fill="#FFDC64"/>
        <path d="M109.31 183.241C105.672 205.069 98.3964 213.016 98.3964 226.896C98.3964 241.448 111.427 256 127.5 256C143.689 256 156.648 242.773 156.603 226.583C156.482 183.102 131.138 161.414 131.138 161.414C134.776 183.242 123.862 194.155 123.862 194.155C119.316 187.336 109.31 183.241 109.31 183.241Z" fill="white"/>
    </g>
    <path d="M44.5363 128V92.96H52.9363L62.0083 120.08C61.4963 114.48 61.2403 110.24 61.2403 107.36V92.96H67.5763V128H59.1763L50.2003 100.88C50.6483 105.84 50.8723 109.76 50.8723 112.64V128H44.5363ZM78.9815 128H71.6375L80.2295 92.96H89.3495L98.0375 128H90.6935L89.0135 120.08H80.6615L78.9815 128ZM81.8615 114.32H87.7655L86.0855 105.872L84.8375 99.44C84.4535 101.584 84.0535 103.712 83.6375 105.824L81.8615 114.32ZM102.387 128V92.96H114.339C116.771 92.96 118.915 93.424 120.771 94.352C122.627 95.28 124.051 96.592 125.043 98.288C126.067 99.952 126.579 101.888 126.579 104.096C126.579 106.304 126.067 108.256 125.043 109.952C124.019 111.616 122.579 112.912 120.723 113.84C118.899 114.768 116.771 115.232 114.339 115.232H109.587V128H102.387ZM114.339 108.752C115.875 108.752 117.091 108.336 117.987 107.504C118.915 106.64 119.379 105.504 119.379 104.096C119.379 102.688 118.915 101.568 117.987 100.736C117.091 99.872 115.875 99.44 114.339 99.44H109.587V108.752H114.339ZM136.544 128H129.2L137.792 92.96H146.912L155.6 128H148.256L146.576 120.08H138.224L136.544 128ZM139.424 114.32H145.328L143.648 105.872L142.4 99.44C142.016 101.584 141.616 103.712 141.2 105.824L139.424 114.32ZM182.701 128H161.341V92.96H168.541V121.28H182.701V128ZM187.579 128V92.96H195.691L198.907 104C199.483 106.016 199.851 107.632 200.011 108.848C200.139 107.632 200.491 106.016 201.067 104L204.235 92.96H212.347V128H205.771V118.4C205.771 115.264 205.899 111.808 206.155 108.032C206.411 104.224 206.715 100.64 207.067 97.28L203.035 113.12H196.939L192.715 97.28C193.131 100.512 193.467 104.016 193.723 107.792C194.011 111.568 194.155 115.104 194.155 118.4V128H187.579ZM30.4336 188V152.96H42.3856C44.8176 152.96 46.9616 153.424 48.8176 154.352C50.6736 155.28 52.0976 156.592 53.0896 158.288C54.1136 159.952 54.6256 161.888 54.6256 164.096C54.6256 166.304 54.1136 168.256 53.0896 169.952C52.0656 171.616 50.6256 172.912 48.7696 173.84C46.9456 174.768 44.8176 175.232 42.3856 175.232H37.6336V188H30.4336ZM42.3856 168.752C43.9216 168.752 45.1376 168.336 46.0336 167.504C46.9616 166.64 47.4256 165.504 47.4256 164.096C47.4256 162.688 46.9616 161.568 46.0336 160.736C45.1376 159.872 43.9216 159.44 42.3856 159.44H37.6336V168.752H42.3856ZM64.5909 188H57.2469L65.8389 152.96H74.9589L83.6469 188H76.3029L74.6229 180.08H66.2709L64.5909 188ZM67.4709 174.32H73.3749L71.6949 165.872L70.4469 159.44C70.0629 161.584 69.6629 163.712 69.2469 165.824L67.4709 174.32ZM87.9961 188V152.96H99.9481C102.38 152.96 104.524 153.424 106.38 154.352C108.236 155.28 109.66 156.592 110.652 158.288C111.676 159.952 112.188 161.888 112.188 164.096C112.188 166.304 111.676 168.256 110.652 169.952C109.628 171.616 108.188 172.912 106.332 173.84C104.508 174.768 102.38 175.232 99.9481 175.232H95.1961V188H87.9961ZM99.9481 168.752C101.484 168.752 102.7 168.336 103.596 167.504C104.524 166.64 104.988 165.504 104.988 164.096C104.988 162.688 104.524 161.568 103.596 160.736C102.7 159.872 101.484 159.44 99.9481 159.44H95.1961V168.752H99.9481ZM122.153 188H114.809L123.401 152.96H132.521L141.209 188H133.865L132.185 180.08H123.833L122.153 188ZM125.033 174.32H130.937L129.257 165.872L128.009 159.44C127.625 161.584 127.225 163.712 126.809 165.824L125.033 174.32ZM168.311 188H146.951V152.96H154.151V181.28H168.311V188ZM179.716 188H172.372L180.964 152.96H190.084L198.772 188H191.428L189.748 180.08H181.396L179.716 188ZM182.596 174.32H188.5L186.82 165.872L185.572 159.44C185.188 161.584 184.788 163.712 184.372 165.824L182.596 174.32ZM201.969 188V152.96H210.081L213.297 164C213.873 166.016 214.241 167.632 214.401 168.848C214.529 167.632 214.881 166.016 215.457 164L218.625 152.96H226.737V188H220.161V178.4C220.161 175.264 220.289 171.808 220.545 168.032C220.801 164.224 221.105 160.64 221.457 157.28L217.425 173.12H211.329L207.105 157.28C207.521 160.512 207.857 164.016 208.113 167.792C208.401 171.568 208.545 175.104 208.545 178.4V188H201.969Z" fill="#F78166"/>
    <defs>
        <clipPath id="clip0">
            <rect width="211" height="211" fill="white" transform="translate(22 45)"/>
        </clipPath>
    </defs>
</svg>
