<svg width="256" height="256" viewBox="0 0 256 256" fill="none" xmlns="http://www.w3.org/2000/svg">
    <rect width="256" height="256" fill="#0D1117"/>
    <path d="M21.4562 122.2C23.0962 122.2 24.3962 122.74 25.3562 123.82C26.3362 124.9 26.8262 126.35 26.8262 128.17V139H23.0762V128.56C23.0762 127.58 22.8162 126.82 22.2962 126.28C21.7762 125.72 21.0462 125.44 20.1062 125.44C19.1662 125.44 18.4362 125.72 17.9162 126.28C17.3962 126.84 17.1362 127.64 17.1362 128.68V139H13.3862V122.5H17.0462V125.65H17.1062C17.2662 124.57 17.7262 123.73 18.4862 123.13C19.2462 122.51 20.2362 122.2 21.4562 122.2ZM38.2145 122.2C40.2945 122.2 41.9145 122.69 43.0745 123.67C44.2345 124.65 44.8145 126.03 44.8145 127.81V139H41.1845V136.12H41.1245C40.9245 137.1 40.3745 137.88 39.4745 138.46C38.5945 139.02 37.4945 139.3 36.1745 139.3C34.5145 139.3 33.1945 138.86 32.2145 137.98C31.2345 137.08 30.7445 135.87 30.7445 134.35C30.7445 132.71 31.2845 131.45 32.3645 130.57C33.4445 129.67 34.9745 129.22 36.9545 129.22H41.0645V127.84C41.0645 127.02 40.8145 126.39 40.3145 125.95C39.8145 125.51 39.0945 125.29 38.1545 125.29C37.3145 125.29 36.6245 125.47 36.0845 125.83C35.5645 126.17 35.2545 126.66 35.1545 127.3H31.4945C31.6745 125.74 32.3645 124.5 33.5645 123.58C34.7845 122.66 36.3345 122.2 38.2145 122.2ZM37.4345 136.48C38.5345 136.48 39.4145 136.22 40.0745 135.7C40.7345 135.18 41.0645 134.47 41.0645 133.57V131.56H37.0145C36.2545 131.56 35.6445 131.78 35.1845 132.22C34.7245 132.66 34.4945 133.25 34.4945 133.99C34.4945 134.75 34.7545 135.36 35.2745 135.82C35.7945 136.26 36.5145 136.48 37.4345 136.48ZM57.4627 122.2C59.1227 122.2 60.4427 122.77 61.4227 123.91C62.4027 125.03 62.8927 126.56 62.8927 128.5V132.97C62.8927 134.91 62.4027 136.45 61.4227 137.59C60.4427 138.73 59.1227 139.3 57.4627 139.3C56.2427 139.3 55.2427 139 54.4627 138.4C53.7027 137.78 53.2427 136.93 53.0827 135.85H52.9927L53.1127 139.78V144.4H49.3627V122.5H53.0227V125.65H53.0827C53.2427 124.57 53.7027 123.73 54.4627 123.13C55.2427 122.51 56.2427 122.2 57.4627 122.2ZM59.1427 128.68C59.1427 127.64 58.8827 126.84 58.3627 126.28C57.8427 125.72 57.1027 125.44 56.1427 125.44C55.2027 125.44 54.4627 125.73 53.9227 126.31C53.3827 126.87 53.1127 127.66 53.1127 128.68V132.82C53.1127 133.84 53.3827 134.64 53.9227 135.22C54.4627 135.78 55.2027 136.06 56.1427 136.06C57.1027 136.06 57.8427 135.78 58.3627 135.22C58.8827 134.66 59.1427 133.86 59.1427 132.82V128.68ZM74.191 122.2C76.271 122.2 77.891 122.69 79.051 123.67C80.211 124.65 80.791 126.03 80.791 127.81V139H77.161V136.12H77.101C76.901 137.1 76.351 137.88 75.451 138.46C74.571 139.02 73.471 139.3 72.151 139.3C70.491 139.3 69.171 138.86 68.191 137.98C67.211 137.08 66.721 135.87 66.721 134.35C66.721 132.71 67.261 131.45 68.341 130.57C69.421 129.67 70.951 129.22 72.931 129.22H77.041V127.84C77.041 127.02 76.791 126.39 76.291 125.95C75.791 125.51 75.071 125.29 74.131 125.29C73.291 125.29 72.601 125.47 72.061 125.83C71.541 126.17 71.231 126.66 71.131 127.3H67.471C67.651 125.74 68.341 124.5 69.541 123.58C70.761 122.66 72.311 122.2 74.191 122.2ZM73.411 136.48C74.511 136.48 75.391 136.22 76.051 135.7C76.711 135.18 77.041 134.47 77.041 133.57V131.56H72.991C72.231 131.56 71.621 131.78 71.161 132.22C70.701 132.66 70.471 133.25 70.471 133.99C70.471 134.75 70.731 135.36 71.251 135.82C71.771 136.26 72.491 136.48 73.411 136.48ZM94.4293 139C92.7893 139 91.4693 138.51 90.4693 137.53C89.4893 136.55 88.9993 135.26 88.9993 133.66V120.49H83.9593V117.1H92.7493V133.66C92.7493 134.24 92.9193 134.71 93.2593 135.07C93.6193 135.43 94.0893 135.61 94.6693 135.61H99.7993V139H94.4293ZM114.158 122.2C115.158 122.2 115.958 122.59 116.558 123.37C117.178 124.13 117.488 125.15 117.488 126.43V139H114.188V126.7C114.188 126.1 114.068 125.64 113.828 125.32C113.588 125 113.238 124.84 112.778 124.84C112.318 124.84 111.968 125 111.728 125.32C111.488 125.64 111.368 126.1 111.368 126.7V139H108.668V126.7C108.668 126.1 108.538 125.64 108.278 125.32C108.038 125 107.678 124.84 107.198 124.84C106.318 124.84 105.878 125.46 105.878 126.7V139H102.578V122.5H105.638V124.72H105.788C105.888 123.94 106.188 123.33 106.688 122.89C107.188 122.43 107.808 122.2 108.548 122.2C109.228 122.2 109.798 122.42 110.258 122.86C110.718 123.3 111.028 123.92 111.188 124.72H111.338C111.438 123.94 111.738 123.33 112.238 122.89C112.738 122.43 113.378 122.2 114.158 122.2ZM129.416 122.2C131.076 122.2 132.396 122.77 133.376 123.91C134.356 125.03 134.846 126.56 134.846 128.5V132.97C134.846 134.91 134.356 136.45 133.376 137.59C132.396 138.73 131.076 139.3 129.416 139.3C128.196 139.3 127.196 139 126.416 138.4C125.656 137.78 125.196 136.93 125.036 135.85H124.946L125.066 139.78V144.4H121.316V122.5H124.976V125.65H125.036C125.196 124.57 125.656 123.73 126.416 123.13C127.196 122.51 128.196 122.2 129.416 122.2ZM131.096 128.68C131.096 127.64 130.836 126.84 130.316 126.28C129.796 125.72 129.056 125.44 128.096 125.44C127.156 125.44 126.416 125.73 125.876 126.31C125.336 126.87 125.066 127.66 125.066 128.68V132.82C125.066 133.84 125.336 134.64 125.876 135.22C126.416 135.78 127.156 136.06 128.096 136.06C129.056 136.06 129.796 135.78 130.316 135.22C130.836 134.66 131.096 133.86 131.096 132.82V128.68ZM146.144 122.2C148.224 122.2 149.844 122.69 151.004 123.67C152.164 124.65 152.744 126.03 152.744 127.81V139H149.114V136.12H149.054C148.854 137.1 148.304 137.88 147.404 138.46C146.524 139.02 145.424 139.3 144.104 139.3C142.444 139.3 141.124 138.86 140.144 137.98C139.164 137.08 138.674 135.87 138.674 134.35C138.674 132.71 139.214 131.45 140.294 130.57C141.374 129.67 142.904 129.22 144.884 129.22H148.994V127.84C148.994 127.02 148.744 126.39 148.244 125.95C147.744 125.51 147.024 125.29 146.084 125.29C145.244 125.29 144.554 125.47 144.014 125.83C143.494 126.17 143.184 126.66 143.084 127.3H139.424C139.604 125.74 140.294 124.5 141.494 123.58C142.714 122.66 144.264 122.2 146.144 122.2ZM145.364 136.48C146.464 136.48 147.344 136.22 148.004 135.7C148.664 135.18 148.994 134.47 148.994 133.57V131.56H144.944C144.184 131.56 143.574 131.78 143.114 132.22C142.654 132.66 142.424 133.25 142.424 133.99C142.424 134.75 142.684 135.36 143.204 135.82C143.724 136.26 144.444 136.48 145.364 136.48ZM165.392 122.2C167.052 122.2 168.372 122.77 169.352 123.91C170.332 125.03 170.822 126.56 170.822 128.5V132.97C170.822 134.91 170.332 136.45 169.352 137.59C168.372 138.73 167.052 139.3 165.392 139.3C164.172 139.3 163.172 139 162.392 138.4C161.632 137.78 161.172 136.93 161.012 135.85H160.922L161.042 139.78V144.4H157.292V122.5H160.952V125.65H161.012C161.172 124.57 161.632 123.73 162.392 123.13C163.172 122.51 164.172 122.2 165.392 122.2ZM167.072 128.68C167.072 127.64 166.812 126.84 166.292 126.28C165.772 125.72 165.032 125.44 164.072 125.44C163.132 125.44 162.392 125.73 161.852 126.31C161.312 126.87 161.042 127.66 161.042 128.68V132.82C161.042 133.84 161.312 134.64 161.852 135.22C162.392 135.78 163.132 136.06 164.072 136.06C165.032 136.06 165.772 135.78 166.292 135.22C166.812 134.66 167.072 133.86 167.072 132.82V128.68ZM182.121 122.2C184.201 122.2 185.821 122.69 186.981 123.67C188.141 124.65 188.721 126.03 188.721 127.81V139H185.091V136.12H185.031C184.831 137.1 184.281 137.88 183.381 138.46C182.501 139.02 181.401 139.3 180.081 139.3C178.421 139.3 177.101 138.86 176.121 137.98C175.141 137.08 174.651 135.87 174.651 134.35C174.651 132.71 175.191 131.45 176.271 130.57C177.351 129.67 178.881 129.22 180.861 129.22H184.971V127.84C184.971 127.02 184.721 126.39 184.221 125.95C183.721 125.51 183.001 125.29 182.061 125.29C181.221 125.29 180.531 125.47 179.991 125.83C179.471 126.17 179.161 126.66 179.061 127.3H175.401C175.581 125.74 176.271 124.5 177.471 123.58C178.691 122.66 180.241 122.2 182.121 122.2ZM181.341 136.48C182.441 136.48 183.321 136.22 183.981 135.7C184.641 135.18 184.971 134.47 184.971 133.57V131.56H180.921C180.161 131.56 179.551 131.78 179.091 132.22C178.631 132.66 178.401 133.25 178.401 133.99C178.401 134.75 178.661 135.36 179.181 135.82C179.701 136.26 180.421 136.48 181.341 136.48ZM202.359 139C200.719 139 199.399 138.51 198.399 137.53C197.419 136.55 196.929 135.26 196.929 133.66V120.49H191.889V117.1H200.679V133.66C200.679 134.24 200.849 134.71 201.189 135.07C201.549 135.43 202.019 135.61 202.599 135.61H207.729V139H202.359ZM218.097 122.2C220.177 122.2 221.797 122.69 222.957 123.67C224.117 124.65 224.697 126.03 224.697 127.81V139H221.067V136.12H221.007C220.807 137.1 220.257 137.88 219.357 138.46C218.477 139.02 217.377 139.3 216.057 139.3C214.397 139.3 213.077 138.86 212.097 137.98C211.117 137.08 210.627 135.87 210.627 134.35C210.627 132.71 211.167 131.45 212.247 130.57C213.327 129.67 214.857 129.22 216.837 129.22H220.947V127.84C220.947 127.02 220.697 126.39 220.197 125.95C219.697 125.51 218.977 125.29 218.037 125.29C217.197 125.29 216.507 125.47 215.967 125.83C215.447 126.17 215.137 126.66 215.037 127.3H211.377C211.557 125.74 212.247 124.5 213.447 123.58C214.667 122.66 216.217 122.2 218.097 122.2ZM217.317 136.48C218.417 136.48 219.297 136.22 219.957 135.7C220.617 135.18 220.947 134.47 220.947 133.57V131.56H216.897C216.137 131.56 215.527 131.78 215.067 132.22C214.607 132.66 214.377 133.25 214.377 133.99C214.377 134.75 214.637 135.36 215.157 135.82C215.677 136.26 216.397 136.48 217.317 136.48ZM240.076 122.2C241.076 122.2 241.876 122.59 242.476 123.37C243.096 124.13 243.406 125.15 243.406 126.43V139H240.106V126.7C240.106 126.1 239.986 125.64 239.746 125.32C239.506 125 239.156 124.84 238.696 124.84C238.236 124.84 237.886 125 237.646 125.32C237.406 125.64 237.286 126.1 237.286 126.7V139H234.586V126.7C234.586 126.1 234.456 125.64 234.196 125.32C233.956 125 233.596 124.84 233.116 124.84C232.236 124.84 231.796 125.46 231.796 126.7V139H228.496V122.5H231.556V124.72H231.706C231.806 123.94 232.106 123.33 232.606 122.89C233.106 122.43 233.726 122.2 234.466 122.2C235.146 122.2 235.716 122.42 236.176 122.86C236.636 123.3 236.946 123.92 237.106 124.72H237.256C237.356 123.94 237.656 123.33 238.156 122.89C238.656 122.43 239.296 122.2 240.076 122.2Z" fill="#F78166"/>
</svg>
